<?xml version="1.0" standalone="no"?>
<!DOCTYPE svg PUBLIC "-//W3C//DTD SVG 20010904//EN"
 "http://www.w3.org/TR/2001/REC-SVG-20010904/DTD/svg10.dtd">
<svg version="1.0" xmlns="http://www.w3.org/2000/svg"
 width="512.000000pt" height="512.000000pt" viewBox="0 0 512.000000 512.000000"
 preserveAspectRatio="xMidYMid meet">

<g transform="translate(0.000000,512.000000) scale(0.100000,-0.100000)"
fill="#000000" stroke="none">
<path d="M2045 5106 c-96 -19 -190 -55 -277 -106 -99 -58 -240 -202 -295 -300
-108 -193 -137 -413 -83 -624 25 -100 64 -181 94 -202 60 -39 134 24 106 90
-67 167 -86 272 -71 395 21 164 82 292 196 406 82 82 169 135 280 172 67 22
99 26 195 26 123 1 195 -13 297 -58 73 -33 106 -32 132 1 40 50 20 89 -69 134
-135 68 -350 96 -505 66z"/>
<path d="M1051 4853 c-32 -32 -84 -168 -112 -293 -39 -175 -35 -414 10 -591
27 -107 79 -237 104 -259 38 -36 95 -22 116 28 10 25 7 40 -28 127 -111 278
-107 591 10 867 27 62 29 74 18 100 -22 54 -75 64 -118 21z"/>
<path d="M3245 4855 c-32 -31 -31 -48 6 -140 110 -276 110 -584 0 -860 -37
-92 -38 -109 -6 -140 54 -55 101 -26 148 92 121 304 121 652 0 956 -47 118
-94 147 -148 92z"/>
<path d="M2775 4808 c-55 -30 -58 -71 -9 -145 118 -178 146 -400 74 -598 -42
-117 -44 -161 -9 -187 36 -27 84 -17 109 24 10 17 33 74 51 127 33 93 34 101
33 256 0 153 -1 164 -32 255 -37 112 -122 257 -159 271 -30 11 -33 11 -58 -3z"/>
<path d="M2083 4756 c-104 -34 -194 -114 -241 -214 l-27 -57 -3 -683 -3 -682
25 -25 c30 -30 65 -32 97 -6 l24 19 5 674 5 675 30 49 c19 30 49 60 80 79 42
26 58 30 119 30 100 -1 160 -38 210 -130 21 -40 21 -43 26 -932 5 -877 5 -892
25 -907 28 -21 68 -20 96 3 l24 19 5 374 5 373 28 47 c34 58 84 94 152 109 98
22 210 -33 254 -124 20 -41 21 -59 21 -390 0 -279 3 -354 14 -382 16 -37 48
-52 92 -41 49 13 54 47 54 358 0 254 2 287 19 323 38 83 120 135 211 135 62 0
114 -21 158 -63 67 -64 66 -60 72 -405 l5 -314 24 -19 c32 -26 73 -24 99 4 21
22 22 33 22 179 0 223 25 289 132 342 124 62 263 12 317 -115 l22 -50 -4 -837
c-4 -806 -5 -841 -25 -950 -32 -169 -58 -262 -115 -417 l-52 -140 0 -313 0
-314 24 -19 c30 -25 62 -24 94 1 l26 21 3 302 3 302 44 110 c51 131 103 327
128 485 16 105 18 193 18 970 l0 855 -27 58 c-38 80 -115 158 -191 193 -55 26
-73 29 -162 29 -93 0 -106 -2 -165 -32 -66 -33 -80 -34 -80 -5 0 34 -58 138
-101 181 -24 24 -73 58 -109 75 -118 56 -278 45 -374 -27 -52 -39 -53 -39 -79
6 -33 55 -99 117 -158 145 -117 56 -275 49 -369 -18 l-29 -21 -3 414 -3 413
-38 76 c-43 87 -98 142 -185 185 -45 22 -72 28 -141 30 -54 2 -102 -2 -128
-11z"/>
<path d="M1839 2881 l-24 -19 -5 -303 -5 -302 -228 247 c-125 135 -247 258
-270 273 -119 75 -264 82 -392 19 -135 -67 -216 -191 -222 -341 -3 -64 1 -92
19 -143 17 -46 141 -236 458 -700 353 -517 450 -652 515 -718 118 -120 241
-196 392 -245 l72 -23 3 -294 3 -294 24 -19 c30 -25 62 -24 95 2 l26 20 0 320
c0 398 6 379 -142 420 -142 40 -310 145 -400 252 -74 87 -887 1283 -903 1328
-74 210 161 407 356 297 25 -14 142 -133 301 -305 286 -312 297 -320 371 -290
20 9 45 30 57 49 19 31 20 50 20 386 l0 353 -25 24 c-29 30 -64 32 -96 6z"/>
</g>
</svg>
