<?xml version="1.0" standalone="no"?>
<!DOCTYPE svg PUBLIC "-//W3C//DTD SVG 20010904//EN"
 "http://www.w3.org/TR/2001/REC-SVG-20010904/DTD/svg10.dtd">
<svg version="1.0" xmlns="http://www.w3.org/2000/svg"
 width="752.000000pt" height="752.000000pt" viewBox="0 0 752.000000 752.000000"
 preserveAspectRatio="xMidYMid meet">

<g transform="translate(0.000000,752.000000) scale(0.100000,-0.100000)"
fill="#000000" stroke="none">
<path d="M3870 5759 c-628 -71 -1167 -486 -1394 -1075 -181 -469 -140 -1008
110 -1446 l27 -48 -59 -62 c-32 -35 -200 -208 -372 -384 -172 -177 -325 -338
-339 -359 -49 -71 -65 -140 -61 -245 4 -78 10 -105 33 -153 99 -205 336 -290
539 -194 66 32 96 59 458 428 l387 395 105 -52 c129 -63 285 -116 436 -146
165 -33 463 -33 629 0 236 48 477 149 661 280 122 86 317 281 403 402 126 179
229 416 279 645 20 87 22 130 22 335 0 259 -10 329 -75 530 -245 750 -1004
1238 -1789 1149z m474 -314 c262 -59 483 -178 674 -359 206 -197 341 -439 403
-721 32 -143 36 -362 11 -510 -100 -583 -524 -1023 -1105 -1147 -145 -31 -399
-31 -544 0 -281 60 -518 189 -717 388 -199 198 -321 426 -383 714 -28 133 -26
420 5 559 31 137 62 223 129 352 133 259 353 475 615 605 109 55 265 107 368
124 41 6 82 13 90 15 41 10 391 -5 454 -20z m-1492 -2549 c68 -67 136 -133
152 -145 l29 -21 -94 -98 c-473 -487 -633 -646 -665 -663 -79 -40 -189 -16
-251 54 -54 61 -67 163 -30 233 11 21 724 764 733 764 1 0 58 -56 126 -124z"/>
<path d="M3944 5075 c-175 -38 -331 -181 -384 -353 -25 -80 -27 -215 -4 -293
24 -81 71 -163 125 -219 27 -27 49 -51 49 -53 0 -2 -19 -9 -42 -16 -120 -35
-281 -165 -351 -282 -64 -108 -88 -202 -94 -368 l-6 -143 85 -82 c400 -386
1064 -382 1477 9 l74 70 -6 140 c-7 160 -23 229 -75 335 -66 135 -234 281
-369 321 -24 7 -43 14 -43 17 0 3 24 31 54 62 91 96 136 209 136 345 0 152
-43 258 -150 366 -129 131 -300 183 -476 144z m251 -218 c114 -59 179 -162
179 -287 0 -94 -31 -169 -99 -234 -66 -64 -137 -89 -240 -84 -95 5 -166 38
-221 101 -58 68 -78 122 -78 213 -1 73 2 87 34 150 40 77 104 134 180 159 69
23 183 14 245 -18z m148 -897 c90 -28 180 -91 233 -162 63 -86 86 -154 92
-277 l5 -103 -29 -25 c-105 -89 -258 -167 -391 -200 -102 -25 -313 -22 -418 6
-128 34 -251 98 -357 185 l-38 31 0 80 c0 231 117 397 330 466 46 15 93 18
281 18 200 1 235 -1 292 -19z"/>
</g>
</svg>
